<svg xmlns="http://www.w3.org/2000/svg" xmlns:xlink="http://www.w3.org/1999/xlink" xml:space="preserve" version="1.1" style="shape-rendering:geometricPrecision;text-rendering:geometricPrecision;image-rendering:optimizeQuality;" viewBox="0 0 758 947.5" x="0px" y="0px" fill-rule="evenodd" clip-rule="evenodd"><defs><style type="text/css">
   
    .fil0 {fill:darkseagreen}
   
  </style></defs><g><path class="fil0" d="M758 379c0,210 -169,379 -379,379 -209,0 -379,-169 -379,-379 0,-209 170,-379 379,-379 210,0 379,170 379,379zm-571 38c-4,4 -10,4 -14,0 -4,-3 -4,-10 0,-14l199 -199c4,-4 10,-4 14,0l200 199c4,4 4,11 0,14 -4,4 -10,4 -14,0l-193 -192 -192 192zm0 138c-4,4 -10,4 -14,0 -4,-4 -4,-11 0,-14l199 -200c4,-4 10,-4 14,0l200 200c4,3 4,10 0,14 -4,4 -10,4 -14,0l-193 -193 -192 193z"/></g><text x="15" y="768" fill="#000000" font-size="5px" font-weight="bold" font-family="'Helvetica Neue', Helvetica, Arial-Unicode, Arial, Sans-serif">Credit of SVG:</text><text x="15" y="773" fill="#000000" font-size="5px" font-weight="bold" font-family="'Helvetica Neue', Helvetica, Arial-Unicode, Arial, Sans-serif">Created by Bismillah</text><text x="15" y="778" fill="#000000" font-size="5px" font-weight="bold" font-family="'Helvetica Neue', Helvetica, Arial-Unicode, Arial, Sans-serif">from the Noun Project</text></svg>