<svg xmlns="http://www.w3.org/2000/svg" xmlns:xlink="http://www.w3.org/1999/xlink" version="1.1" x="0px" y="0px" viewBox="0 0 100 125" enable-background="new 0 0 100 100" xml:space="preserve"><g><path fill="#000000" d="M32.62,48.247H15.796c-0.276,0-0.5-0.224-0.5-0.5s0.224-0.5,0.5-0.5H32.62c0.276,0,0.5,0.224,0.5,0.5   S32.896,48.247,32.62,48.247z"/></g><g><path fill="#000000" d="M32.62,52.413H15.796c-0.276,0-0.5-0.224-0.5-0.5s0.224-0.5,0.5-0.5H32.62c0.276,0,0.5,0.224,0.5,0.5   S32.896,52.413,32.62,52.413z"/></g><g><path fill="#000000" d="M25.375,56.705h-9.579c-0.276,0-0.5-0.224-0.5-0.5s0.224-0.5,0.5-0.5h9.579c0.276,0,0.5,0.224,0.5,0.5   S25.651,56.705,25.375,56.705z"/></g><g><path fill="#000000" d="M19.208,44h-3.412c-0.276,0-0.5-0.224-0.5-0.5s0.224-0.5,0.5-0.5h3.412c0.276,0,0.5,0.224,0.5,0.5   S19.484,44,19.208,44z"/></g><g><path fill="#000000" d="M25.75,66.433H15.586c-0.276,0-0.5-0.224-0.5-0.5s0.224-0.5,0.5-0.5H25.75c0.276,0,0.5,0.224,0.5,0.5   S26.026,66.433,25.75,66.433z"/></g><g><path fill="#000000" d="M39.25,66.433H29.086c-0.276,0-0.5-0.224-0.5-0.5s0.224-0.5,0.5-0.5H39.25c0.276,0,0.5,0.224,0.5,0.5   S39.526,66.433,39.25,66.433z"/></g><g><path fill="#000000" d="M62.75,66.433H43.086c-0.276,0-0.5-0.224-0.5-0.5s0.224-0.5,0.5-0.5H62.75c0.276,0,0.5,0.224,0.5,0.5   S63.026,66.433,62.75,66.433z"/></g><g><path fill="#000000" d="M32.41,70.599H15.586c-0.276,0-0.5-0.224-0.5-0.5s0.224-0.5,0.5-0.5H32.41c0.276,0,0.5,0.224,0.5,0.5   S32.687,70.599,32.41,70.599z"/></g><g><path fill="#000000" d="M51.498,70.599H34.674c-0.276,0-0.5-0.224-0.5-0.5s0.224-0.5,0.5-0.5h16.824c0.276,0,0.5,0.224,0.5,0.5   S51.774,70.599,51.498,70.599z"/></g><g><path fill="#000000" d="M71.162,70.599H54.338c-0.276,0-0.5-0.224-0.5-0.5s0.224-0.5,0.5-0.5h16.824c0.276,0,0.5,0.224,0.5,0.5   S71.438,70.599,71.162,70.599z"/></g><g><path fill="#000000" d="M34.674,74.891H15.586c-0.276,0-0.5-0.224-0.5-0.5s0.224-0.5,0.5-0.5h19.088c0.276,0,0.5,0.224,0.5,0.5   S34.95,74.891,34.674,74.891z"/></g><g><path fill="#000000" d="M56.924,74.891H37.836c-0.276,0-0.5-0.224-0.5-0.5s0.224-0.5,0.5-0.5h19.088c0.276,0,0.5,0.224,0.5,0.5   S57.2,74.891,56.924,74.891z"/></g><g><path fill="#000000" d="M18.998,62.186h-3.412c-0.276,0-0.5-0.224-0.5-0.5s0.224-0.5,0.5-0.5h3.412c0.276,0,0.5,0.224,0.5,0.5   S19.274,62.186,18.998,62.186z"/></g><g><path fill="#000000" d="M18.998,78.75h-3.412c-0.276,0-0.5-0.224-0.5-0.5s0.224-0.5,0.5-0.5h3.412c0.276,0,0.5,0.224,0.5,0.5   S19.274,78.75,18.998,78.75z"/></g><g><path fill="#000000" d="M93,88H7V22h86V88z M9,86h82V24H9V86z"/></g><g><path fill="#000000" d="M93,24H7v-9.204C7,13.069,8.752,12,10.375,12h79.25C91.248,12,93,13.069,93,14.796V24z M9,22h82v-7.204   C91,14.402,90.306,14,89.625,14h-79.25C9.694,14,9,14.402,9,14.796V22z"/></g><g><circle fill="#000000" cx="14.208" cy="17.792" r="1.542"/></g><g><circle fill="#000000" cx="19.208" cy="17.792" r="1.542"/></g><g><circle fill="#000000" cx="24.208" cy="17.792" r="1.542"/></g><g><path d="M20.044,31.718l-3.398,1.875l3.398,1.875v1.348l-5.555-3.053v-0.381l5.555-3.012V31.718z"/><path d="M26.097,38.339h-1.143l3.211-8.812h1.143L26.097,38.339z"/><path d="M34.546,30.37l5.555,3.012v0.381l-5.555,3.053v-1.348l3.398-1.875l-3.398-1.875V30.37z"/></g><text x="15" y="110" fill="#000000" font-size="5px" font-weight="bold" font-family="'Helvetica Neue', Helvetica, Arial-Unicode, Arial, Sans-serif">Credit of SVG:</text><text x="15" y="115" fill="#000000" font-size="5px" font-weight="bold" font-family="'Helvetica Neue', Helvetica, Arial-Unicode, Arial, Sans-serif">Created by Dawid Sobolewski</text><text x="15" y="120" fill="#000000" font-size="5px" font-weight="bold" font-family="'Helvetica Neue', Helvetica, Arial-Unicode, Arial, Sans-serif">from the Noun Project</text></svg>